<svg width="42" height="42" viewBox="0 0 42 42" fill="none" xmlns="http://www.w3.org/2000/svg">
<path fill-rule="evenodd" clip-rule="evenodd" d="M21 31.8958C27.0122 31.8958 31.8861 27.0175 31.8861 20.9999C31.8861 14.9823 27.0122 10.104 21 10.104C14.9878 10.104 10.114 14.9823 10.114 20.9999C10.114 27.0175 14.9878 31.8958 21 31.8958ZM21 28.2638C25.0081 28.2638 28.2574 25.0116 28.2574 20.9999C28.2574 16.9881 25.0081 13.736 21 13.736C16.9919 13.736 13.7426 16.9881 13.7426 20.9999C13.7426 25.0116 16.9919 28.2638 21 28.2638Z" fill="#ACBA8F" stroke="#ACBA8F"/>
<path d="M31.8861 8.26392C30.8607 8.26392 30.0295 9.08781 30.0295 10.1041C30.0295 11.1204 30.8607 11.9443 31.8861 11.9443C32.9114 11.9443 33.7426 11.1204 33.7426 10.1041C33.7426 9.08781 32.9114 8.26392 31.8861 8.26392Z" fill="#ACBA8F" stroke="#ACBA8F"/>
<path fill-rule="evenodd" clip-rule="evenodd" d="M2.18902 6.95647C1 9.29005 1 12.3449 1 18.4545V23.5455C1 29.6551 1 32.71 2.18902 35.0435C3.23491 37.0962 4.90378 38.7651 6.95647 39.8109C9.29005 41 12.3449 41 18.4545 41H23.5455C29.6551 41 32.71 41 35.0435 39.8109C37.0962 38.7651 38.7651 37.0962 39.8109 35.0435C41 32.71 41 29.6551 41 23.5455V18.4545C41 12.3449 41 9.29005 39.8109 6.95647C38.7651 4.90378 37.0962 3.23491 35.0435 2.18902C32.71 1 29.6551 1 23.5455 1H18.4545C12.3449 1 9.29005 1 6.95647 2.18902C4.90378 3.23491 3.23491 4.90378 2.18902 6.95647ZM23.5455 4.63636H18.4545C15.3397 4.63636 13.2223 4.6392 11.5856 4.77291C9.99135 4.90316 9.17607 5.13925 8.60735 5.42904C7.23889 6.12631 6.12631 7.23889 5.42904 8.60735C5.13925 9.17607 4.90316 9.99135 4.77291 11.5856C4.6392 13.2223 4.63636 15.3397 4.63636 18.4545V23.5455C4.63636 26.6604 4.6392 28.7776 4.77291 30.4144C4.90316 32.0087 5.13925 32.824 5.42904 33.3927C6.12631 34.7611 7.23889 35.8736 8.60735 36.5709C9.17607 36.8607 9.99135 37.0969 11.5856 37.2271C13.2223 37.3607 15.3397 37.3636 18.4545 37.3636H23.5455C26.6604 37.3636 28.7776 37.3607 30.4144 37.2271C32.0087 37.0969 32.824 36.8607 33.3927 36.5709C34.7611 35.8736 35.8736 34.7611 36.5709 33.3927C36.8607 32.824 37.0969 32.0087 37.2271 30.4144C37.3607 28.7776 37.3636 26.6604 37.3636 23.5455V18.4545C37.3636 15.3397 37.3607 13.2223 37.2271 11.5856C37.0969 9.99135 36.8607 9.17607 36.5709 8.60735C35.8736 7.23889 34.7611 6.12631 33.3927 5.42904C32.824 5.13925 32.0087 4.90316 30.4144 4.77291C28.7776 4.6392 26.6604 4.63636 23.5455 4.63636Z" fill="#ACBA8F" stroke="#ACBA8F"/>
</svg>
